<?xml version="1.0" encoding="UTF-8" standalone="no"?>
<!-- Generator: Adobe Illustrator 17.0.0, SVG Export Plug-In . SVG Version: 6.00 Build 0)  -->

<svg
   version="1.1"
   id="svg2"
   x="0px"
   y="0px"
   width="982.451px"
   height="955.452px"
   viewBox="0 0 982.451 955.452"
   enable-background="new 0 0 982.451 955.452"
   xml:space="preserve"
   xmlns="http://www.w3.org/2000/svg"
   xmlns:svg="http://www.w3.org/2000/svg"><defs
   id="defs63" />
   <g id="wilaya" >
<path
   id="_x30_1_Adrar"
   style="fill:#86aae0;stroke:#ffffff;stroke-width:0.75;stroke-linecap:round"
   d="m 497.587,465.613 -0.082,0.241 -0.939,3.039 -6.339,10.06 -1.623,20.16 -3.719,6.361 0.102,12.42 3.699,5.56 -5.12,12.88 -0.941,17.759 -4.698,3.361 -0.282,-1.64 -3.48,0.4 -1.78,-1.621 -5.26,1.621 -2.38,4.899 -14.96,15.36 5.422,12.081 17.139,24.26 0.299,43.88 0.22,32.899 v 0.681 l -254.581,-71.14 -13.478,0.82 -26.34,9.459 -33.841,-26.339 25.92,-8.461 14.401,-13.899 28.36,0.459 6.078,-13.44 14.361,-19.44 4.639,-3.959 7.702,-3.161 15.38,1.12 3.558,-2.12 6.641,-21.919 -2.319,-2.5 6.72,-21.261 12.298,-15.06 3.462,-7.519 13.079,-9.861 13.661,-18.6 26.478,-7.24 22.383,-0.919 2.698,-2.301 23.802,22.38 8,2.34 6.66,2.6 h 6.677 l 5,2.74 6.601,2 h 7.062 l 5.66,-1.34 3.34,-1.34 5.337,-2.06 8.663,-3.6 14,-0.34 5,2 13.358,-1.32 5.979,3.26 z" />
<path
   id="_x30_2_Chlef"
   fill="#86AAE0"
   stroke="#FFFFFF"
   stroke-width="0.75"
   stroke-linecap="round"
   d="M485.219,81.029  l0.508-3.518l-2.536-1.818l-1.364-3.214l0.514-2.198l-1.6,0.358l-1.36-1.406l-0.008-2.038l2.66-1.77l-3.658-1.072l2.392-2.338  l-2.992-3.244l0.26-2.344l4.458-3.28l2.196-4.934l-8.664,1.306l-5.338-1.374l-3.18,2.402l-8.416,0.628l-6.11,2.364l-1.98,3.374  l-6.23,2.496l-2,6.566l4.11,0.642l4.346-1.602l0.934,3.788l1.074,0.042l-1.654,3.374l1.018-0.314l1.038,3.994l3.55-1.326  l-0.694,0.488l1.186,0.082l1.082,2.358l3.126,1.97l5.676-1.626l4.344,6.574l0.12-2.828l1.036-0.666l-0.768-0.696l4.524-1.24  l0.072-1.73l2.438-2.328l2.072,3.752L485.219,81.029L485.219,81.029z" />
<path
   id="_x30_3_Laghouat"
   style="fill:#86aae0;stroke:#ffffff;stroke-width:0.75;stroke-linecap:round"
   d="m 605.005,230.093 -26.159,-1.8 -1.539,0.84 -5.36,-2.22 -1.823,0.781 -0.599,-1.021 -0.838,1.5 -0.88,-0.64 -1.881,1.48 -15.7,0.72 7.318,4.461 0.662,5.799 -17.1,-4.08 -10.742,3.22 -21.658,1.9 -6.22,-13.139 0.298,-3.06 -1.279,-1.761 7.981,-0.28 0.418,-7.8 -4.16,0.901 -7.037,-2.261 0.418,-3.36 -6.24,-0.56 0.562,-5.72 1.64,-2.86 -2.28,-2.02 -0.241,-1.98 -2.921,-0.82 0.5,-5.32 -1.14,-3.1 -3.659,-3.18 -6.981,1.64 -3.22,-3.58 -4.418,-1.939 0.317,-1.981 -1.717,-2.92 4.4,-2.92 -1.623,-2.7 7.541,-4.44 0.562,2.26 3.28,-1.939 0.72,-4.881 3.678,-4.18 9.76,-3.5 4.701,-5.14 3.961,-1.76 0.858,-2.1 6.041,-0.74 1.12,12.66 2.5,7.18 0.88,-0.16 6.76,9.52 2.398,0.66 4.521,-2.14 1.399,0.52 -0.058,-2.9 4.539,-4.58 2.899,1.52 -0.238,0.86 2.5,-0.86 4.761,13.42 -0.302,2.42 3.221,6.4 10.48,3.02 7.958,7.18 2.82,4.66 16.26,6.12 2.982,2.12 8.018,7.84 z" />
<path
   id="_x30_4_Oum_El-Bouaghi"
   fill="#86AAE0"
   stroke="#FFFFFF"
   stroke-width="0.75"
   stroke-linecap="round"
   d="M737.393,75.819  l1.402,0.772l1.064,4.234l3.23,1.478l-1.544,1.378l0.28,2.186l2.622,5.318l-8.094,3.242l-3.758,5.596l-1.248,0.226l-1.32-2.102  l-1.384-0.12l-0.666-2.382l-0.786-0.628l-1.2,1.202l0.358-1.158l-2.626-1.85l-0.82,2.8l-2.096,0.616l0.128-4.328l-3.54-1.752  l-0.238,1.096l-3.632-0.538l-1.914,4.018l-3.298-0.966l0.82-2.032l-1.23-1.06l-8.064,1.216l-1.548-3.19l-4.216-4.826l-3.138-1.432  l-5.342,2.43l-0.704-1.034l0.928-0.77l-1.07-0.73l0.722-1.836l-5.214-0.532l-0.218-1.174l-3.1,2.63l-4.866-2.596l1.606-4.226  l3.3-0.452l1.43,1.02l-0.426-1.542l1.564,0.232l2.438-3.066l0.324-5.582l4.732-1.726l-0.762,0.874l1.188,2.32l2.02,0.738  l-0.928-1.608l2.244,1.206l0.75-2.138l4.486-0.318l0.526-2.888l2.892,2.332l7.242,0.132l-0.404,2.512l2.53,1.102l-0.392,1.914  l1.996,0.332l5.57-2.744l1.366-3.55l2.514-0.152l0.846,4.526l1.472,0.09l1.3,4.24l2.052,2.662l5.346,1.88l-0.062,2.956l5.63-0.428  l-0.708-3.074L737.393,75.819L737.393,75.819z" />
<path
   id="_x30_5_Batna"
   fill="#86AAE0"
   stroke="#FFFFFF"
   stroke-width="0.75"
   stroke-linecap="round"
   d="M692.12,135.843  l-1.268-4.29l1.622-1.59l-1.224-0.968l0.998-1.16l-2.69-4.512l-1.604-0.292l0.802-1.688l-0.878-2.702l2.614-2.86l-0.46-5.27  l3.286-2.792l-2.102-0.438l0.352-2.876l-1.264-2.666l2.984-2.772l4.834-1.196l1.226-3.028l-1.482-2.982l0.428-2.676l-4.216-4.826  l-3.138-1.432l-5.342,2.43l-0.704-1.034l0.928-0.77l-1.07-0.73l0.722-1.836l-5.214-0.532l-0.218-1.174l-3.1,2.63l-4.866-2.596  l-7.166-0.836l-0.98,0.766l-1.93,1.14l0.89,2.326l-5.612-4.836l-2.428,0.634l-2.848,3.118l0.242,1.548l2.424,0.806l-1.584,2.604  l-1.362-0.478l-1.004,1.082l-4.588-1.896l-0.484,1.37l-1.592-0.156l-2.764,2.184l0.468,2.002l-1.56,3.518l-2.254-0.666l-5.322,5.926  l-3.634,1.812l-1.442-2.136l-2.124-0.024l-1.656,1.842l-0.148-1.574l-1.918,3.012l-3.89-3.396l1.644,8.802l-0.758,5.092  l-1.832,3.094l-1.05-0.372l-2.372,2.346l0.388,1.212l5.858,0.12l4.252,2.794l1.168-0.682l4.036,1.934l1.46,2.204l2.034-0.944  l3.006,1.418l1.114-0.16l0.682-2.222l7.822-0.202l3.574-1.908l0.324-1.866l-1.312-1.95l-2.91-0.56l-0.642-1.904l4.432,0.304  l7.12-4.796l5.634,3.762l3.716-0.438l-4.494,4.242l1.988,2.746l-1.654,2.85l1.528-0.422l1.95,3.534l4.526-5.67l2.05,0.776  l-0.17,2.37l4.26,1.398l1.37-2.896l4.118-0.522l3.302-2.224l2.582,3.252l-1.562,2.252l1.01,1.888l-0.872,5.08l4.912,3.942  L692.12,135.843L692.12,135.843z" />
<path
   id="_x30_6_Béjaïa"
   fill="#86AAE0"
   stroke="#FFFFFF"
   stroke-width="0.75"
   stroke-linecap="round"
   d="M611.333,52.957  l-0.672,2.248l-4.032,1.838l-0.07,4.98l-8.358,2.196l-1.554-3.402l0.444-1.202l-1.5-1.98l1.484-0.976l0.3-2.61l-1.356-2.65  l3.59-1.662l4.358-4.886l-0.814-1.322l2.518-3.162l-3.556-1.888l0.296-1.292l2.458-0.72l1.41,1.078l1.342-1.308l-0.138-2.676  l-2.798-3.904l7.224-0.812l6.8,2.122l4.076,2.878l3.742,0.728l-0.886,3.43l5.772,3.124l8.652-0.62l0.058,2.632l1.834,0.39  l-0.366,2.954l-4.776,2.146l0.502,1.366l-2.63,2.946l0.94,1.84l-1.496,0.75l-3.312,0.482l0.052-1.87l-1.14,0.396l0.048-5.382  l1.07-1.388l-4.318-2.93l-0.076,0.896l-1.858-0.176l-0.892,2.756l-7.242-0.96l-0.096,2.698L611.333,52.957L611.333,52.957z" />
<path
   id="_x30_7_Biskra"
   fill="#86AAE0"
   stroke="#FFFFFF"
   stroke-width="0.75"
   stroke-linecap="round"
   d="M699.025,147.493  l-2.1,4.08l1.04,3.86l-3.46,4.38v0.02l-3.3,1.16l-2.9-2.8l-11.46-4.08l-10.62,2.6l-0.14-0.02l-23.72-2.52l-4.4-2.92l-1.16-2.98v-3  l-1.76-1.94l-2.5-1.86l-0.3-2.08l-1.88-1.62l-1.5-3.94c0,0-3.88-0.14-7.46-0.32l2.08-0.62l1.36-3.18l1.08-0.14l-1.1-0.6l-0.88-6.98  l1.16-0.68l4.04,1.92l1.46,2.22l2.04-0.96l3,1.42l1.12-0.16l0.68-2.22l7.82-0.2l3.58-1.9l0.32-1.88l-1.32-1.94l-2.9-0.56l-0.64-1.9  l4.42,0.3l7.12-4.8l5.64,3.76l3.72-0.44l-4.5,4.24l1.98,2.76l-1.64,2.84l1.52-0.42l1.96,3.54l4.52-5.68l2.04,0.78l-0.16,2.38  l4.26,1.4l1.36-2.9l4.12-0.52l3.3-2.24l2.6,3.26l-1.58,2.26l1.02,1.88l-0.88,5.08l4.92,3.94l2.08-0.74v0.02l2.16-1.22l1.48-3.42  l2.28-0.14l-0.8,0.96l2.1,2.1l-0.84,2l1.64-0.4l-1.44,4.78L699.025,147.493z" />
<path
   id="_x30_8_Béchar"
   style="fill:#86aae0;stroke:#ffffff;stroke-width:0.75;stroke-linecap:round"
   d="m 426.865,348.354 -0.378,0.44 -9.06,-1.461 -3.383,-1.859 h -17 l -3,-4.261 h -4.117 l -5.883,-5.5 h -5.117 l -1.883,1.62 -11,0.38 -3,2.12 -6.737,0.26 -1.38,1.5 -8.62,0.881 -2.763,-3.261 -5.858,0.74 -2.759,1.88 h -21.62 l -2,2.26 -19.38,-0.26 -10,9.38 h -6.12 l -3,-1.38 -2.763,2.12 -1.737,1.521 h -6.88 l -2.12,1.619 h -4.762 v 2.12 h -5.381 l -0.737,-1.739 -1.263,-6.261 -1.619,-1.739 -0.558,-4.361 4.258,-1.599 1.16,-1.54 -2.021,-3.421 1.422,-3.859 0.881,0.539 3.52,-4.42 0.12,-4.26 -0.4,-1.32 -1,1.04 -0.783,-0.82 -0.899,-3.18 -0.939,0.38 -0.022,0.6 -1.317,0.42 0.96,0.48 -1.543,-0.32 0.48,-3.28 -1.278,-1.32 -0.239,1.98 -1.222,-0.519 0.082,1.479 -1.28,-0.479 -0.72,1.22 0.879,-4 -1.259,-2.94 1.457,-1.321 -1.097,-1.56 1.74,-3.399 1.14,1 3.42,-2.5 -0.242,-12.28 36.701,-6.961 -4.26,-12.06 1.219,-4.479 13.76,0.819 6.021,-2.2 8.099,-0.179 4.579,1.479 6.88,-1.819 18.8,5.139 14.72,1.141 3.78,-2.541 -2.44,-2.44 -3.778,0.46 2.52,-2.06 -0.16,-6.239 2.301,-3.861 3.057,-0.539 0.32,4.78 2.862,0.239 -1.082,5.74 2.761,0.081 0.6,3.119 11.66,-6.2 13.58,3.801 3.62,-2.66 4.821,1.04 3.261,-4.801 -1.903,8.78 -4.159,-0.96 -2.199,1.64 -2.099,4.44 -0.28,8.361 1.358,4.559 -1.38,0.12 v 0.02 l 0.36,1.92 -1.198,1.701 1.899,2.359 -2.481,2.421 2.5,4.019 -2.019,2.4 0.059,3.74 1.699,3.64 5.843,4.701 -1.64,5.959 z" />
<path
   id="_x30_9_Blida"
   fill="#86AAE0"
   stroke="#FFFFFF"
   stroke-width="0.75"
   stroke-linecap="round"
   d="M551.447,50.251  l0.494-2.556l-1.17-0.54l0.768-0.828l-0.94-1.714l1.072-0.958l-1.772,0.698l-1.512-2.62l-2.018,1.542l-1.22-0.606l-1.404,3.614  l-2.236,0.15l0.216-2.164l-2.982,2.14l-7.542-3.166l0.678,2.046l-4.222,1.198l-2.954,3.294l-2.12,0.28l0.886,1.604l-0.896,1.28  l-3.136-0.604l-2.074,2.928l5.986,4.212l3.018-2.174l5.786,0.408l3.136-2.354l1.342,3.014l2.96,0.016l1.736-1.934l-0.378-2.716  l0.946,1.912l1.466-1.192l1.386,1.396l2.318-2.308l0.166-2.762l3.26,0.538L551.447,50.251L551.447,50.251z" />
<path
   id="_x31_0_Bouira"
   fill="#86AAE0"
   stroke="#FFFFFF"
   stroke-width="0.75"
   stroke-linecap="round"
   d="M584.046,73.713  l2.936-2.266l0.37-4.77l3.416-1.722l1.59-2.484l2.722,0.184l1.566-1.836l0.444-1.202l-1.5-1.98l1.484-0.976l0.3-2.61l-1.356-2.65  l-5.028,0.532l-0.548-1.068l-2.018,1.084l-11.308,0.326l-2.666-0.658l-1.872-3.274l-1.564,0.08l-1.782-2.474l-9.43-1.418  l-0.96,1.968l-2.732,1.428l-4.176-0.236l-0.494,2.556l5.444,5.258l3.12-2.96l2.716,1.408l-0.876,1.372l1.992,2.782l-2.14,1.196  l-0.884,2.532l2.14,1.956l-0.362,1.618l-2.852,0.828l-0.456,1.708l1.312,2.084l-0.816,0.97l-1.798,1.87l-2.028-0.03l0.958,1.562  l5.576,0.868l2.814,5.298l1.064-1.616l3.074,0.306l1.31,1.848l2.144,0.444l0.698,2.01l1.606,0.096l2.538-2.428l5.084,1.78  l-0.888-2.77L584.046,73.713L584.046,73.713z" />
<path
   id="_x31_1_Tamenrasset"
   fill="#86AAE0"
   stroke="#FFFFFF"
   stroke-width="0.75"
   stroke-linecap="round"
   d="M891.185,752.194  l-115.12,83.82c-2.74-1.96-5.34-3.88-5.9-4.54c-1.24-1.52-11.74-10-11.74-10h-5.26l-2.24,2l-4.5-0.76l-18.26-13.24h-12.24l-2.5,5  l-2.26,7.48l-3,7.26l-3,6v8.74h-25l-5.24-5.74l-19.24,0.26l-10.52-6.76l-8.24-0.5l-4.24-1.5l-4.26,2.5l-1.74,7.26l1.48,4.48l-1.48,4  l-2.26,9.26l-8.74,1.74l-10.26,10.26h-8.74l-2.76-3l1.24-9.74l1.26-3v-5.52l-2.5-3v-4.48l-4-5l-7.5-2.26l-3.5-3.26l-9.5-0.48  l-5.26-7.26l-6-0.5l-2.74-9l-3.5-6.76l-3-7.24l-4-1.24l-2.76,4.48l-31.48-0.24l-1.7,1.94l-19.98,0.3l-0.24-1.12l-8.84-0.94  l-8.32,1.34l1.26-112.96v-0.68l-0.22-32.9l19.16-15.36l2-7l3.36-16.24l0.88-4.26l1.5-7.24l3.26-3.38l3.88,3.12l6.74-1.24l4.26,3.62  l8.12,1.24l5.62,5.88l20.5-0.74l6.38-7.5l5.24-0.12v8.74l1.26,2.62h6.24l2.12-1.5l3.38,1.5l11.5-11.24l-6.12-10.38l0.38-4.5  l3.12-2.62l-1.5-8.38l-2-2l-3.38-5.38l2.26-1.74l5.5,5.24l5.12-0.74l16-17.26l13-0.74c0,0,2.38,2,3.12,2.38c0.76,0.36,2.62,0,2.62,0  l2.38-4.38l4.14-1l9.86-10v-4.88l3.14-2.5l6.24-8.76l-2.24-5.62v-4.24l4.24-4.88l2.5-4l13.88,0.38l0.36,1.7l0.08,17.42l25.36,22.42  l0.84,3.84l-5.64,4.7l-2.12,6.12l2.36,3.1l4.5,1.2l0.28,2.02l3.06,2.26l11.86,32.28l10.12,12.28l3.26,8.34l7.38,12.48l5.66,4.36  l8.96,0.28l11.18,16.06l-0.48,7.56l2.08,21.88l11.16,24.72l-3.94,4.48l12.48,8.78l34.36-8.32l25.78-19.24l27.8-1.64l3.32,2.04  l4.42-0.1l14.96,8.46L891.185,752.194z" />
<path
   id="_x31_2_Tébessa"
   style="fill:#86aae0;stroke:#ffffff;stroke-width:0.75;stroke-linecap:round"
   d="m 765.125,123.213 -2.8,1.62 1.86,7.44 1.76,1.96 -3.26,2.62 1.8,1.58 -2.76,2.74 0.46,1.38 -2.2,0.22 -2.201,3.34 -10.699,5.98 -1.481,8.48 -16.519,-0.82 -8.521,-2.98 1.54,-10.16 4.221,-7.88 0.06,-3.399 -1.281,-1.901 1.5,-4.02 -1.74,-4.76 -2.539,-0.2 -1.32,1.94 -0.881,2.7 1,-0.3 -0.179,3.181 -1.821,-4.221 2.78,-7.22 2.601,-1.62 2.859,-4.88 -2.099,-3.119 1.579,-2.36 -1.519,-1.161 -0.24,-4.88 6.259,-2.26 1.26,-0.24 3.74,-5.58 8.101,-3.239 v -0.021 l -2.62,-5.3 -0.281,-2.2 1.541,-1.38 -3.221,-1.459 -1.08,-4.241 -1.399,-0.78 0.799,-2.72 3.761,2.8 3.239,-0.059 4.201,-4.7 2.519,0.299 5,-2.22 4.341,2.16 -1.32,2.58 0.94,0.821 -0.06,8.319 3.92,2.78 0.64,7.58 1.22,1.94 -2.78,3.82 0.14,5.201 4.14,3.239 3.06,0.14 -4.7,7.56 z" />
<path
   id="_x31_3_Tlemcen"
   fill="#86AAE0"
   stroke="#FFFFFF"
   stroke-width="0.75"
   stroke-linecap="round"
   d="M370.453,122.265  l-1.372,0.14l-0.524-1.82l-6.978-3.496l-0.662,0.66l-0.744-1.544l-2.162,0.91l-4.676-1.586l-1.836,2.672l-2.166,0.528l-2.102-1.336  l0.404-1.908l-1.694-1.246l-7.996,5.854l-1.344-0.71l-4.346,2.336l-6.894,0.496l-3.676-1.688l-2.334,0.828l-0.206,1.9l5.204,4.898  l2.112,1.602l2.776-0.436l0.054,2.98l3.234,1.92l0.178,1.766l6.256,3.432l-5.002,6.418l1.538,0.628l2.74,4.762l2.57,1.164  l-4.238,5.132l3.164,4.312l-0.426,3.614l2.396,7.512l7.22-5.24l9.986,0.044l2.452-2.816l3.058-0.966l12.186-11.266l-0.724-1.586  l-1.914-0.396l3.218-1.902l2.57-5.506l-0.46-1.372l0.994,0.072l-0.548-2.01l-4.75,0.542l0.866-6.388l-2.354,0.482l1.606-2.27  l-2.382-0.092l-1.012-3.654l2.626-4.254L370.453,122.265L370.453,122.265z" />
<path
   id="_x31_4_Tiaret"
   fill="#86AAE0"
   stroke="#FFFFFF"
   stroke-width="0.75"
   stroke-linecap="round"
   d="M500.835,100.349  l-2.654,0.524l0.442,2.792l13.554,8.214l2.1,3.676l5.374-4.598l2.102,1.592l0.656,2.25l3.496,0.836l-0.016,3.042l-1.356,0.518  l-2.242,4.502l2.86,2.554l-6.456,2.55l-2.894,9.322l-2.94,0.918l0.336,4.854l-6.028,0.746l-0.87,2.088l-3.956,1.772l-4.694,5.13  l-9.754,3.506l-3.678,4.176l-0.73,4.876l-3.288,1.954l-0.546-2.278l-7.55,4.456l1.616,2.69l-4.39,2.92l-2.238-3.154l-0.432-3.686  l-11.082,0.59l1.344-9.764l-7.944-1.654l3.312-5.814l-5.948-2.448l-0.632-1.062l1.51-1.062l-0.9-2.36l-2.122,0.916l-3.462-6.13  l0.77-3.416l-1.112-1.846l6.324-4.658l-3.19-4.866l-2.806-1.264l-0.562-1.982l-6.594,0.776l2.144-3.54l3.104-2.2l-0.492-1.898  l2.35-2.82l2.166-0.322l3.042,1.578l2.224-0.704l1.746-4.212l1.378-0.562l-2.982-3.108l1.802-0.36l3.454-5.756l2.428-0.194  l0.224-1.736l1.622,0.22l0.328-1.826l4.116,0.414l1.136-1.972l2.898-1.144l2.69,3.34l1.178-4.596l2.538,1.86l1.076-0.606  l2.706,1.528l0.122,2.83l3.906-0.348l2.09,3.438l1.626,0.31l0.344-2.094l1.916,1.944l7.594-0.864l4.868-2.674l-1.118,1.342  l3.1,0.134L500.835,100.349L500.835,100.349z" />
<path
   id="_x31_5_Tizi-Ouzou"
   fill="#86AAE0"
   stroke="#FFFFFF"
   stroke-width="0.75"
   stroke-linecap="round"
   d="M604.687,29.659  l2.798,3.904l0.138,2.676l-1.342,1.308l-1.41-1.078l-2.458,0.72l-0.296,1.292l3.556,1.888l-2.518,3.162l0.814,1.322l-4.358,4.886  l-3.59,1.662l-5.028,0.532l-0.548-1.068l-2.018,1.084l-11.308,0.326l-2.666-0.658l-1.872-3.274l-1.564,0.08l-1.782-2.474  l-0.436-3.388l2.832-0.642l1.69,1.184l-0.33-2.578l2.712,0.626l-1.544-1.726l0.772-2.882l2.084,0.462l0.36-1.21l1.888-0.154  l0.09-1.56l2.708-2.326l-0.27-2.478l10.878-0.642l3.702,0.852l1.972-1.094L604.687,29.659L604.687,29.659z" />
<path
   id="_x31_6_Alger"
   fill="#f22e10"
   stroke="#FFFFFF"
   stroke-width="0.75"
   stroke-linecap="round"
   d="M554.025,35.883  l-0.542,1.218l1.316-0.43l0.06,2.04l-4.556,1.49l-1.32-0.966l0.78,1.404l-1.378,1.092l-2.018,1.542l-1.22-0.606l-1.404,3.614  l-2.236,0.15l0.216-2.164l-2.982,2.14l-7.542-3.166l-0.27-2.894l1.22-3.23l1.8-0.348l0.546-1.888l2.41-0.47l3.664,0.176l0.986,2.402  l2.324,1.05l4.238-1.244l0.314-2.59L554.025,35.883L554.025,35.883z" />
<path
   id="_x31_7_Djelfa"
   style="fill:#86aae0;stroke:#ffffff;stroke-width:0.75;stroke-linecap:round"
   d="m 629.164,203.393 -4.838,10.26 4.418,22.88 -23.739,-6.44 -6.381,-10.74 -8.018,-7.84 -2.982,-2.12 -16.26,-6.12 -2.797,-4.66 h -0.023 l -7.958,-7.18 -10.48,-3.02 -3.221,-6.4 0.302,-2.42 -4.761,-13.42 -2.5,0.86 0.238,-0.86 -2.899,-1.52 -4.539,4.58 0.058,2.9 -1.399,-0.52 -4.521,2.14 -2.398,-0.66 -6.76,-9.52 -0.88,0.16 -2.5,-7.18 -1.12,-12.66 -0.342,-4.86 2.943,-0.9 2.899,-9.32 6.439,-2.56 -2.861,-2.56 2.241,-4.5 1.36,-0.52 0.019,-3.04 -3.5,-0.84 -0.66,-2.239 -2.099,-1.601 -5.361,4.6 -2.098,-3.68 -13.561,-8.2 -0.439,-2.8 2.641,-0.519 7.399,-0.641 1.318,4.74 4.282,-0.34 4.958,-1.619 0.46,-1.121 5.38,3.821 2.602,-1.34 3.2,-5.121 3.66,-2.72 1.158,0.52 -1.359,-10.02 5.182,-1.4 1.38,4.661 1.399,-0.28 0.38,4.399 5.558,-1.399 1.523,-2.741 -0.221,-2.419 2.059,-2.041 1.719,3.44 2.18,-0.099 0.62,2.519 3.822,3.901 9.418,7.619 -0.139,3.54 -1.74,1.261 0.86,3.88 -8.559,7.219 2.26,6.26 3.679,-1.48 -1,3.08 -1.101,0.14 1.403,1.9 -0.422,5.94 2.802,0.66 0.279,3.3 2.818,-0.96 7.82,1.94 1.42,8.5 -0.578,4.08 3.658,3.98 -0.62,4.16 8.602,7.16 -0.88,1.38 1.86,2.28 3.78,0.54 0.779,2.98 4.701,0.781 1.14,1.459 h -2.4 l -2.74,2.94 -2.682,0.26 -0.798,1.04 0.899,1.38 13.14,5.66 2.162,2.96 6.519,1.24 0.78,1.9 3.919,-0.64 1.461,2.441 7.998,2 -1.037,1.759 z" />
<path
   id="_x31_8_Jijel"
   fill="#86AAE0"
   stroke="#FFFFFF"
   stroke-width="0.75"
   stroke-linecap="round"
   d="M653.146,45.123  l2.226-0.676l2.734,1.444l3.008-0.892l2.484-3.342l9.712,1.624l3.722-2.464l0.866,1.276l5.484,0.962l-0.508-2.774l1.656-0.388  l0.6-1.568l-5.932-2.852l-1.398-6.618l-3.27-0.706l0.556-2.366l-0.916-1.32l-11.544,5.988l-6.968,1.708l-1.714-1.134l-3.352,0.658  l-4.76,2.886l-2.068,4.076l-3.702,1.87l0.058,2.632l1.834,0.39l1.502-0.048l0.806,3.708l1.958,0.154l1.984-1.916l2.498,1.352  L653.146,45.123L653.146,45.123z" />
<path
   id="_x31_9_Sétif"
   fill="#86AAE0"
   stroke="#FFFFFF"
   stroke-width="0.75"
   stroke-linecap="round"
   d="M653.146,45.123  l1.114,1.434l-0.25,4.096l2.488,1.906l-0.228,2.694l2.788,0.852l-0.194,2.342l4.376,4.734l-1.954,1.042l0.098,3.736l3.426,0.798  l0.572,4.17l-1.38,1.206l2.324,2.426l-2.4,2.586l-1.93,1.14l0.89,2.326l-5.612-4.836l-2.428,0.634l-2.848,3.118l0.242,1.548  l2.424,0.806l-1.584,2.604l-1.362-0.478l-1.004,1.082l-4.59-1.896l-0.484,1.37l-1.592-0.156l-2.764,2.184l0.468,2.002l-1.56,3.518  l-2.254-0.666l-6.986-0.936l-1.096-1.612l0.836-1.072l-0.974-1.036l-2.216,0.48l-2.946-2.084l0.338-1.254l-0.036-3.204l4.176-0.576  l-0.968-5.854l3.338-5.716l-1.938-1.944l0.254-4.156l-1.928-0.548l-2.96-5.09l-2.406-0.726l-1.922,1.308l-5.704,0.594l-1.558-1.966  l0.598-3.75l-2.516-1.344l5.032-2.9l0.096-2.698l7.242,0.96l0.892-2.756l1.858,0.176l0.076-0.896l4.318,2.93l-1.07,1.388  l-0.048,5.382l1.14-0.396l-0.052,1.87l3.312-0.482l1.496-0.75l-0.94-1.84l2.63-2.946l-0.502-1.366l4.776-2.146l0.366-2.954  l1.502-0.048l0.806,3.708l1.958,0.154l1.984-1.916l2.498,1.352L653.146,45.123L653.146,45.123z" />
<path
   id="_x32_0_Saida"
   fill="#86AAE0"
   stroke="#FFFFFF"
   stroke-width="0.75"
   stroke-linecap="round"
   d="M448.977,158.261  l-5.706-1.468l-9.166,6.268l-3.464-4.592l-5.798,4.018l-4.346-0.506l-4.19-4.254l-4.662-1.526l-3-2.996l-4.4,2.496l-0.274-4.306  l-1.96-2.192l0.512-3.02l4.982,2.498l1.296,3.766l2.24-3.332l-2.756-5.68l-4.226-2.748l-0.588-2.208l-3.54-0.326l0.808-2.382  l-2.658-1.802l2.328-1.602l-0.792-4.174l3.624-0.394l-0.97-3.526l0.704-1.892l2.636-0.806l1.964,0.014l1.33-2.48l0.69,3.952  l5.166-0.378l2.602,1.736l2.162-0.194l0.41,1.812l2.02,1.324l4.988-3.298l1.548,1.78l1.998,0.24l3.082-3.036l6.594-0.776  l0.562,1.982l2.806,1.264l3.19,4.866l-6.324,4.658l1.112,1.846l-0.77,3.416l3.462,6.13l2.122-0.916l0.9,2.36l-1.51,1.062  l0.632,1.062l5.948,2.448L448.977,158.261L448.977,158.261z" />
<path
   id="_x32_1_Skikda"
   fill="#86AAE0"
   stroke="#FFFFFF"
   stroke-width="0.75"
   stroke-linecap="round"
   d="M719.94,37.151l-1.076,0.7  l-0.836-0.892l-1.1,2.102l-7.168,2.528l-1.306,1.744l0.84,2.488l-5.258,1.396l-0.122,3.084l-2.508-0.26l-0.798-1.4l-2.248,0.416  l0.414-4.026l1.94-2.036l-3.6,0.722l-4.548-0.848l-0.738-2.648l-2.136,2.776l-4.376-0.294l-1.934,0.348l-0.508-2.774l1.656-0.388  l0.6-1.568l-5.932-2.852l-1.398-6.618l-3.27-0.706l0.556-2.366l-0.916-1.32l-0.974-2.092l0.952-2.266l2.922-2.328l5.598-1.284  l3.236,1.656l1.538,4.082l5.768,1.332l1.284-1.046l0.78,0.96l3.292-0.786l1.558,3.198l2.966,0.476l5.276-2.188l3.318,0.082  l4.084-3.856l-0.558-2.09l-3.672-2.596l4.936,0.12l1.73,1.41l-0.54,1.298l1.868,3.116l-0.206,1.056l-1.236-0.218l2.69,2.506  l1.294,6.848l-0.152,1.792l-2.392,0.982L719.94,37.151L719.94,37.151z" />
<path
   id="_x32_2_Sidi_Bel_Abbes"
   fill="#86AAE0"
   stroke="#FFFFFF"
   stroke-width="0.75"
   stroke-linecap="round"
   d="M391.225,104.837  l-1.284,1.986l0.48,1.928l-3.006,1.494l-0.364-1.344l-5.676,0.994l-0.136,1.456l-1.936,0.912l-1.626-1.096l-1.562,2.79l-1.346-0.358  l0.572,3.892l-2.76,0.922l-0.496,2.902l-1.636,0.95l3.884,2.124l-2.626,4.254l1.012,3.654l2.382,0.092l-1.606,2.27l2.354-0.482  l-0.866,6.388l4.75-0.542l0.548,2.01l-0.994-0.072l0.46,1.372l-2.57,5.506l-3.218,1.902l1.914,0.396l0.724,1.586l-12.187,11.266  l2.16,3.262l4.266-3.134l1.176,2.036l0.684-0.834l5.932,1.788l8.108-5.02l3.686,2.082l6.266,19.538l0.628-2.258l1.708,0.082  l4.182-5.77l3.264-1.422l2.748,0.398l3.004-6.134l1.884-1.382l-2.464-11.018l-3-2.996l-4.4,2.496l-0.274-4.306l-1.96-2.192  l0.512-3.02l4.982,2.498l1.296,3.766l2.24-3.332l-2.756-5.68l-4.226-2.748l-0.588-2.208l-3.54-0.326l0.808-2.382l-2.658-1.802  l2.328-1.602l-0.792-4.174l3.624-0.394l-0.97-3.526l0.704-1.892l2.636-0.806L404,117.171l0.75-1.93l2.954-1.422l-1.91-0.71  l-2.44,2.038l-0.436-1.098l2.624-1.714l0.758-1.974l-5.454-1.71l-0.704-1.264l-1.504,1.764l-3.126-0.24l0.464-4.508l-3.176,1.204  L391.225,104.837L391.225,104.837z" />
<path
   id="_x32_3_Annaba"
   fill="#86AAE0"
   stroke="#FFFFFF"
   stroke-width="0.75"
   stroke-linecap="round"
   d="M733.24,36.865  l1.144-2.894l-0.854-1.494l1.938-2.28l1.878,0.286l0.062-2.656l2.278-0.018l-0.732-1.37l-2.384-1.736l1.066-4.514l-3.542,1.214  l-2.08-1.422l-1.428,1.006l-4.718-3.972l-4.286,0.378l-0.96-2.258l-4.146,0.698l1.73,1.41l-0.54,1.298l1.868,3.116l-0.204,1.056  l-1.236-0.218l2.69,2.506l1.294,6.848l-0.152,1.792l-2.392,0.982l0.402,2.532l2.302-0.244l0.876,1.752l0.398-1.484l2.208-1.016  l0.35,2.374l5.426,1.006L733.24,36.865L733.24,36.865z" />
<path
   id="_x32_4_Guelma"
   fill="#86AAE0"
   stroke="#FFFFFF"
   stroke-width="0.75"
   stroke-linecap="round"
   d="M733.24,36.865  l1.872-0.618l1.372,1.002l2.378,5.22l2.338-0.764l0.402,1.086l-0.094-1.542l2.596,1.168l1.84,3.7l-3.664,3.088l-2.046-0.824  l-0.39,2.634l2.158,2.764l-0.748,0.874l-4.436,0.344l-4.32,4.162l-2.39-0.544l-5.038,1.868l-5.706-1.078l-0.99,2.692l1.5,1.838  l-2.514,0.152l-1.366,3.55l-5.57,2.744l-1.996-0.332l0.392-1.914l-2.53-1.102l0.404-2.512l-0.156-1.14l1.712-0.948l0.212-3.372  l-1.122-2.886l-2.446-0.44l1.198-1.432l-2.104-1.114l1.068-1.102l-1.146-1.782l0.122-3.084l5.258-1.396l-0.84-2.488l1.306-1.744  l7.168-2.528l1.1-2.102l0.836,0.892l1.076-0.7l2.302-0.244l0.876,1.752l0.398-1.484l2.208-1.016l0.35,2.374l5.426,1.006  L733.24,36.865L733.24,36.865z" />
<path
   id="_x32_5_Constantine"
   fill="#86AAE0"
   stroke="#FFFFFF"
   stroke-width="0.75"
   stroke-linecap="round"
   d="M706.7,64.521  l-0.156-1.14l1.712-0.948l0.212-3.372l-1.122-2.886l-2.446-0.44l1.198-1.432l-2.104-1.114l1.068-1.102l-1.146-1.782l-2.508-0.26  l-0.798-1.4l-2.248,0.416l0.414-4.026l1.94-2.036l-3.6,0.722l-4.548-0.848l-0.738-2.648l-2.136,2.776l-4.376-0.294l-0.04,3.198  l-6.596,1.53l0.57,4.042l-1.842,3.756l2.638-0.81l2.252,1.758l-0.528,2.976l1.576,0.992l2.036-0.59l1.874,1.606l-0.216,2.708  l-0.762,0.874l1.188,2.32l2.02,0.738l-0.928-1.608l2.244,1.206l0.75-2.138l4.486-0.318l0.526-2.888l2.892,2.332L706.7,64.521  L706.7,64.521z" />
<path
   id="_x32_6_Médéa"
   fill="#86AAE0"
   stroke="#FFFFFF"
   stroke-width="0.75"
   stroke-linecap="round"
   d="M565.302,80.571  l0.546,1.59l-2.284,1.372l1.1,0.734l-4.04,1.37l1.72,2.562l0.072,5.932l-5.418-8.31l-1.788,0.28l0.812,1.542l-0.98,0.99l-2.18,0.098  l-1.708-3.432l-2.064,2.04l0.208,2.412l-1.506,2.74l-5.574,1.402l-0.37-4.4l-1.398,0.288l-1.388-4.674l-5.17,1.414l1.352,10.01  l-1.158-0.518l-3.66,2.722l-3.208,5.128l-2.586,1.324l-5.398-3.818l-0.458,1.12l-4.948,1.624l-4.278,0.334l-1.318-4.726l1.42-3.936  l-5.62-1.476l-0.694-2.72l1.008-1.24l4.452,0.458l1.804-7.814l2.1-2.208l-0.674-1.752l3.97,0.148l0.634-5.552l1.722,0.468  l3.684-2.222l0.126-3.686l-2.688-0.61l-0.17-2.738l-1.418-0.398l1.25-3.82l2.692,0.086l1.514-1.228l3.018-2.174l5.786,0.408  l3.136-2.354l1.342,3.014l2.96,0.016l1.736-1.934l-0.378-2.716l0.946,1.912l1.466-1.192l1.386,1.396l2.318-2.308l0.166-2.762  l3.26,0.538l0.96-1.074l5.444,5.258l3.12-2.96l2.716,1.408l-0.876,1.372l1.992,2.782l-2.14,1.196l-0.884,2.532l2.14,1.956  l-0.362,1.618l-2.852,0.828l-0.456,1.708l1.312,2.084l-0.816,0.97l-1.798,1.87l-2.028-0.03l0.958,1.562l5.576,0.868L565.302,80.571  L565.302,80.571z" />
<path
   id="_x32_7_Mostaganem"
   fill="#86AAE0"
   stroke="#FFFFFF"
   stroke-width="0.75"
   stroke-linecap="round"
   d="M408.625,87.241  l5.928-3.698l4.676-9.342l3.69-3.884l18.374-10.79l3.48-0.116l-2,6.566l-3.958,4.942l2.578,2.7l-1.268,1.398l0.718,1.742  l-4.252,0.186l-1.106,1.21l-2.452-1.144l-1.692,2.036l0.626,1.534l1.348-0.072l-1.18,1.984l0.454,1.82l-2.664,2.874l-1.754-0.746  l-1.734,1.078l-3.488,4.148l-1.806-0.272l-1.212,1.926l-0.06-1.526l-2.14,0.36l-2.058-2.854l-4.504,1.198L408.625,87.241  L408.625,87.241z" />
<path
   id="_x32_8_M_x27_sila"
   fill="#86AAE0"
   stroke="#FFFFFF"
   stroke-width="0.75"
   stroke-linecap="round"
   d="M637.945,93.433  l-5.32,5.94l-3.64,1.8l-1.44-2.12l-2.12-0.04l-1.66,1.84l-0.14-1.56l-1.92,3l-3.9-3.38l1.64,8.8l-0.74,5.08l-1.84,3.1l-1.06-0.38  l-2.36,2.36l0.38,1.2l5.86,0.12l4.26,2.8l0.88,6.98l1.1,0.6l-1.08,0.14l-1.36,3.18l-2.08,0.62c-0.02,0-0.02,0-0.02,0l-8.78,2.64  l-1.88,3l-2,0.34l2.6,2.18l-2.04,1.08l-1.32-0.88l-3.66,2.28l-9.62,0.08l-1.76,3.66l-4.38,3.66l1.06,0.6l0.82,6.18l2.44,2.54  l-0.62,1.44l3.64,1.86l-1.56,2.02l-3.98,1.04l-8.6-7.16l0.62-4.16l-3.66-3.98l0.58-4.08l-1.42-8.5l-7.82-1.94l-2.82,0.96l-0.28-3.3  l-2.8-0.66l0.42-5.94l-1.4-1.9l1.1-0.14l1-3.08l-3.68,1.48l-2.26-6.26l8.56-7.22l-0.86-3.88l1.74-1.26l0.14-3.54l-9.42-7.62  l-3.82-3.9l-0.62-2.52l0.98-1l-0.82-1.54l1.8-0.28l5.4,8.32l-0.06-5.94l-1.72-2.56l4.04-1.36l-1.1-0.74l2.28-1.38l-0.54-1.58  l1.06-1.62l3.08,0.3l1.3,1.86l2.14,0.44l0.7,2l1.62,0.1l2.54-2.42l5.08,1.78l-0.9-2.78l2.12-6.52l1.14,2.2l4.42-1.52l5.52,1.96  l6.78-2.92l1.72,5.56l-3.22,1.24l-1.38,4.2l5.64,0.58l-0.72-1.98l2.66-1.28l-0.78,2.18l1.32,1.54l4.16-3.14l5.44-1.06l2.64,3.34  l2.34-0.1l0.36,2.44l2.82-1.02l-0.34,1.24l2.94,2.1l2.22-0.48l0.98,1.02l-0.84,1.08l1.1,1.62L637.945,93.433z" />
<path
   id="_x32_9_Mascara"
   fill="#86AAE0"
   stroke="#FFFFFF"
   stroke-width="0.75"
   stroke-linecap="round"
   d="M422.949,91.662  l1.156,0.388l2.434,7.222l3.432-0.986l0.25,1.048l1.716-1.222l2.564,3.604l3.78-0.082l1.836,1.834l3.442-0.17l0.59,1.324  l4.094,0.636l2.982,3.108l-1.378,0.562l-1.746,4.212l-2.224,0.704l-3.042-1.578l-2.166,0.322l-2.35,2.82l0.492,1.898l-3.104,2.2  l-2.144,3.54l-3.082,3.036l-1.998-0.24l-1.548-1.78l-4.988,3.298l-2.02-1.324l-0.41-1.812l-2.162,0.194l-2.602-1.736l-5.166,0.378  l-0.69-3.952l-1.33,2.48l-1.964-0.014l-1.608-4.406l0.75-1.93l2.954-1.422l-1.91-0.71l-2.44,2.038l-0.436-1.098l2.624-1.714  l0.758-1.974l-5.454-1.71l-0.704-1.264l-1.504,1.764l-3.126-0.24l0.464-4.508l-3.176,1.204l-1.574-0.762l0.638-1.498l2.06-0.17  l-0.74-1.9l3.166-0.76l0.526-3.482l5.25-4.208l-1.334-0.012l1.778-3.066l2.864,2.178l3.162-4.58l2.576,3.154l4.504-1.198  l2.058,2.854l2.14-0.36l0.06,1.526l1.212-1.926L422.949,91.662L422.949,91.662z" />
<path
   id="_x33_0_Ouargla"
   fill="#86AAE0"
   stroke="#FFFFFF"
   stroke-width="0.75"
   stroke-linecap="round"
   d="M828.485,344.833  l-126.98,32.92l-5.6-1.78l-31.76,17.82l-86.24,66.52l0.3-0.82l-35.06-28.36l16.46-7.26l13.52-28.18l3.16-2.18l20.98-73.42l6.34-16.3  l0.64-14.24l0.9-19.78l13.52-14.62l10.08-18.62l-4.42-22.88l4.84-10.26l7.84,7l1.82-3.72l17.6-0.32v2.24l2.66,3.62  c0,0-0.58,11.26,0,11.08c0.6-0.16,5.68,4.18,5.68,4.18l1.92,4.08l1.58,1.74l5.5,1.76l0.4,11.82l12.84,17.08l4.08,0.42l14.5,5.18  l5.52,2.22l5.06,2.26l3.3,1.62l6.78,0.8l79.46-8.52L828.485,344.833z" />
<path
   id="_x33_1_Oran"
   fill="#86AAE0"
   stroke="#FFFFFF"
   stroke-width="0.75"
   stroke-linecap="round"
   d="M391.225,104.837  l0.638-1.498l2.06-0.17l-0.74-1.9l3.166-0.76l0.526-3.482l5.25-4.208l-1.334-0.012l1.778-3.066l2.864,2.178l3.194-4.678l-6.864-1.85  l-1.272-1.468l0.56-1.524l-1.792-1.692l-1.962,0.05l-1.35,1.342l-3,0.22l-0.66,4.402l-4.986,3.834l-2.652,0.022l-0.812-1.52  l-5.098-1.476l-1.502,2.678l-1.704,0.508l-1.588-1.18l-5.218,4.528l2.682,2.858l-0.444,1.434l2.016,0.014l-0.766,2.038l-1.786,0.502  l0.348,3.182l0.024-1.242l1.788-0.09l-0.404-1.192l1.642,1.314l3.14,0.042l10.132-3.248l1.552,5.842l-1.544,1.128l-0.054,2.202  l0.364,1.344l3.006-1.494l-0.48-1.928L391.225,104.837L391.225,104.837z" />
<path
   id="_x33_2_El_Bayadh"
   style="fill:#86aae0;stroke:#ffffff;stroke-width:0.75;stroke-linecap:round"
   d="m 508.524,272.113 1.442,17.22 -9.301,10.301 -42.16,26.359 -31.64,22.361 -28.058,-23.821 1.64,-5.959 -5.843,-4.701 -1.699,-3.64 -0.059,-3.74 2.019,-2.4 -2.5,-4.019 2.481,-2.421 -1.899,-2.359 1.198,-1.701 -0.36,-1.92 v -0.02 l 1.38,-0.12 -1.358,-4.559 0.28,-8.361 2.099,-4.44 2.199,-1.64 4.159,0.96 1.903,-8.78 5.98,-11.519 -0.861,-4.781 0.799,-3.06 -1.96,-2.2 0.542,-2.26 -1.662,-0.94 0.561,-3.68 3.12,-1.72 1.179,-3.159 -1.338,-0.881 1.78,-1.98 -1.682,-4.9 5.84,-26.2 -1.641,-5.959 4.242,-2.261 -1.519,-0.22 -1.462,-3.58 -1.5,-0.56 0.399,-5.3 -2.099,-1.5 -3.599,1.62 -0.339,-4.94 3,-6.14 1.877,-1.38 -2.459,-11.019 4.662,1.539 4.198,4.241 4.341,0.519 5.799,-4.019 3.459,4.579 9.16,-6.26 5.723,1.46 7.94,1.66 -1.361,9.76 h 0.021 l 11.078,-0.58 0.422,3.68 2.24,3.16 1.717,2.92 -0.317,1.981 4.418,1.939 3.22,3.58 6.981,-1.64 3.659,3.18 1.14,3.1 -0.5,5.32 2.921,0.82 0.241,1.98 2.28,2.02 -1.64,2.86 -0.562,5.72 6.24,0.56 -0.418,3.36 7.037,2.261 4.16,-0.901 -0.418,7.8 -7.981,0.28 1.279,1.761 -0.298,3.06 6.22,13.139 1.14,12.361 1.558,6.279 0.022,0.021 2.26,9.06 z" />
<path
   id="_x33_3_Illizi"
   style="fill:#86aae0;stroke:#ffffff;stroke-width:0.75;stroke-linecap:round"
   d="m 872.145,618.173 -16.98,-0.959 -5.24,2.259 -7.5,-0.259 -7,1.74 -9.5,-0.481 -6,-6.759 -3.461,-8.5 -6.539,-8.26 h -7.24 l -8.76,6.26 -2.24,4.259 h -3.52 l -3.74,1.481 -6.26,3.76 -2.24,9 -12.5,0.24 -1.74,1.26 h -17.761 l -13.5,-7 -7.26,-2 -7,-2.26 -4.92,-3.3 -11.859,-32.28 -3.06,-2.261 -0.281,-2.02 -4.5,-1.199 -2.36,-3.101 2.12,-6.12 5.641,-4.7 -0.841,-3.839 -25.36,-22.42 -0.08,-17.421 -0.36,-1.699 -7.099,-33.46 3.539,-16.72 -2.599,-67.62 31.759,-17.82 5.601,1.779 126.98,-32.92 4.82,16.521 -6.2,2.579 -0.92,2.16 1.38,5.22 5.96,6.86 12.319,23.58 5.461,19.941 2.3,13.579 -1.5,24.32 7.299,20.94 -1.079,9.64 -2.32,4.92 -2.161,0.74 2.781,0.461 -0.48,2.98 -2.1,2.28 -0.96,5.64 0.259,4.96 4.481,15.18 3.38,4.459 0.199,11 -1.859,6.62 -15.62,7.921 -2.16,6.88 -2.44,3.1 32.019,40.659 z" />
<path
   id="_x33_4_Bord-Bou-Arréridj"
   fill="#86AAE0"
   stroke="#FFFFFF"
   stroke-width="0.75"
   stroke-linecap="round"
   d="  M624.903,85.927l-0.036-3.204l4.176-0.576l-0.968-5.854l3.338-5.716l-1.938-1.944l0.254-4.156l-1.928-0.548l-2.96-5.09l-2.406-0.726  l-1.922,1.308l-5.704,0.594l-1.558-1.966l0.598-3.75l-2.516-1.344l-0.672,2.248l-4.032,1.838l-0.07,4.98l-8.358,2.196l-1.554-3.402  l-1.566,1.836l-2.722-0.184l-1.59,2.484l-3.416,1.722l-0.37,4.77l-2.936,2.266l1.14,2.208l4.422-1.536l5.51,1.976l6.78-2.922  l1.73,5.548l-3.234,1.25l-1.378,4.19l5.644,0.584l-0.722-1.982l2.658-1.278l-0.772,2.182l1.326,1.532l4.144-3.124l5.44-1.064  l2.658,3.338l2.334-0.098l0.364,2.434L624.903,85.927L624.903,85.927z" />
<path
   id="_x33_5_Boumerdès"
   fill="#86AAE0"
   stroke="#FFFFFF"
   stroke-width="0.75"
   stroke-linecap="round"
   d="M551.938,47.696  l4.176,0.236l2.732-1.428l0.96-1.968l9.43,1.418l-0.436-3.388l2.832-0.642l1.69,1.184l-0.33-2.578l2.712,0.626l-1.544-1.726  l0.772-2.882l2.084,0.462l0.36-1.21l1.888-0.154l0.09-1.56l2.708-2.326l-0.27-2.478l-6.13-1.048l-6.484,2.07l-1.812,2.158  l-7.7,3.974l-5.644-0.55l-0.542,1.218l1.316-0.43l0.06,2.04l-4.556,1.49l-1.32-0.966l0.78,1.404l-1.378,1.092l1.512,2.62  l1.772-0.698l-1.072,0.958l0.94,1.714l-0.768,0.828L551.938,47.696L551.938,47.696z" />
<path
   id="_x33_6_El-Taref"
   fill="#86AAE0"
   stroke="#FFFFFF"
   stroke-width="0.75"
   stroke-linecap="round"
   d="M738.955,26.442  l0.732,1.37l-2.278,0.018l-0.062,2.656l-1.878-0.286l-1.938,2.28l0.854,1.494l-1.144,2.894l1.872-0.618l1.372,1.002l2.378,5.22  l2.338-0.764l0.402,1.086l-0.094-1.542l2.596,1.168l1.84,3.7l2.766-0.038l0.544,3.52l1.646-2.514l3.644-1.648l-0.652-1.506  l0.938-0.96l4.652-1.592l4.616-4.26l1.83-0.238l1.394-4.1l-0.848-2.294l-1.726-0.806l5.94-1.064l3.964-2.646l0.356-1.042  l-2.372-0.674l0.398-4.452l-8.904,2.882l-2.858-1.31l-3.644,0.546l-1.964-1.722l-9.47,5.352L738.955,26.442L738.955,26.442z" />
<path
   id="_x33_7_Tindouf"
   style="fill:#86aae0;stroke:#ffffff;stroke-width:0.75;stroke-linecap:round"
   d="m 271.665,518.254 -6.641,21.919 -3.558,2.12 -15.38,-1.12 -7.702,3.161 -4.639,3.959 -14.361,19.44 -6.078,13.44 -28.36,-0.459 -14.401,13.899 -25.92,8.461 -131.919,-100.64 6.381,-71.941 9.677,-3.44 13.543,-10.1 10.02,-4.819 8.48,-6 6.198,-1.72 2,-3.521 9.921,0.28 11.28,-6.5 16.381,4.28 3.86,-2.46 7.458,0.22 3.699,-2.019 2.52,0.94 10.12,-1 4.5,1.299 11.881,-1.919 3.321,1.659 -1.36,3.38 2.761,-0.919 5.297,3.539 3.182,-4.22 9.958,8.36 16.82,0.701 11.622,6.34 11.558,42.359 13.563,25.361 0.157,15.28 11.683,14.2 6,4.84 z" />
<path
   id="_x33_8_Tissemsilt"
   fill="#86AAE0"
   stroke="#FFFFFF"
   stroke-width="0.75"
   stroke-linecap="round"
   d="M471.906,84.425  l1.544,1.344l-2.244,2.67l-1.412-0.284l-0.664-1.786l-1.986,1.084l0.412,3.302l-1.302,2.15l2.69,3.34l1.178-4.596l2.538,1.86  l1.076-0.606l2.706,1.528l0.122,2.83l3.906-0.348l2.09,3.438l1.626,0.31l0.344-2.094l1.916,1.944l7.594-0.864l4.868-2.674  l-1.118,1.342l3.1,0.134l-0.06,1.904l7.4-0.632l1.42-3.936l-5.62-1.476l-0.694-2.72l1.008-1.24l4.452,0.458l1.804-7.814  l-3.124-0.262l-1.68-2.218l-2.456-0.11l-0.88-1.874l-5.374,1.418l0.012-2.008l-5.268,5.856l-1.548,0.038l-0.8-2.298l-4.266-0.502  l-3.82-2.34l-2.072-3.752l-2.438,2.328l-0.072,1.73l-4.524,1.24l0.768,0.696l-1.036,0.666L471.906,84.425L471.906,84.425z" />
<path
   id="_x33_9_El_Oued"
   style="fill:#86aae0;stroke:#ffffff;stroke-width:0.75;stroke-linecap:round"
   d="m 805.705,267.933 -79.461,8.52 -11,-12.72 -15.56,-23.16 -16.2,-45.94 -2.42,-15.32 -0.64,1.6 -1.039,-2.079 -1.521,0.219 -5.46,4.281 -1.1,-2.101 1.701,-7.52 -1.661,-3.16 -1.5,-3.32 -3.18,-3.02 -0.579,-7.519 0.139,0.019 10.62,-2.6 11.46,4.081 2.901,2.799 3.3,-1.159 v -0.021 l 3.459,-4.38 0.1,4.32 10.381,6.28 3.099,0.7 0.18,-9.16 8.84,-0.8 8.521,2.98 16.519,0.82 0.2,1.52 -3.2,2.52 -3.36,-1.34 -1.799,4.38 -3.401,2.4 1.461,2.36 -1.141,5.68 1.26,3.58 -0.919,2 2.82,2.12 0.539,5.48 7.141,11.16 3.979,12.181 3.18,0.019 9.341,3.86 0.1,2.56 9.52,11.12 2.38,16.32 z" />
<path
   id="_x34_0_Khenchela"
   style="fill:#86aae0;stroke:#ffffff;stroke-width:0.75;stroke-linecap:round"
   d="m 720.945,131.974 0.179,-3.181 -1,0.3 0.881,-2.7 1.32,-1.94 2.539,0.2 1.74,4.76 -1.5,4.02 1.281,1.901 -0.06,3.399 -4.221,7.88 -1.54,10.16 -8.84,0.8 -0.18,9.16 -3.099,-0.7 -10.381,-6.28 -0.1,-4.32 -1.04,-3.86 2.101,-4.08 -0.32,-6.98 1.44,-4.78 -1.64,0.4 0.839,-2 -2.1,-2.1 0.8,-0.96 -2.279,0.14 -1.481,3.42 -2.16,1.201 -1.28,-4.281 1.62,-1.6 -1.22,-0.96 1,-1.16 -2.68,-4.5 -1.619,-0.3 0.82,-1.7 -0.88,-2.7 2.599,-2.86 -0.459,-5.26 3.3,-2.8 -2.101,-0.42 0.34,-2.879 -1.26,-2.681 2.98,-2.759 4.84,-1.2 1.22,-3.021 -1.48,-3 0.42,-2.66 1.56,3.181 8.06,-1.22 1.241,1.059 -0.82,2.04 3.279,0.96 1.921,-4.02 3.639,0.541 0.24,-1.101 3.541,1.76 -0.141,4.32 2.1,-0.6 0.82,-2.8 2.62,1.841 -0.36,1.159 1.2,-1.2 0.8,0.621 0.661,2.399 1.38,0.12 1.319,2.1 -6.259,2.26 0.24,4.88 1.519,1.161 -1.579,2.36 2.099,3.119 -2.859,4.88 -2.601,1.62 -2.78,7.22 z" />
<path
   id="_x34_1_Souk_Ahras"
   fill="#86AAE0"
   stroke="#FFFFFF"
   stroke-width="0.75"
   stroke-linecap="round"
   d="M761.251,71.377  l-4.35-2.162l-4.998,2.222l-2.51-0.312l-4.204,4.704l-3.244,0.062l-3.754-2.802l-0.794,2.728l-1.636,0.97l0.708,3.074l-5.63,0.428  l0.062-2.956l-5.346-1.88l-2.052-2.662l-1.3-4.24l-1.472-0.09l-0.846-4.526l-1.5-1.838l0.99-2.692l5.706,1.078l5.038-1.868  l2.39,0.544l4.32-4.162l4.436-0.344l0.748-0.874l-2.158-2.764l0.39-2.634l2.046,0.824l3.664-3.088l2.766-0.038l0.544,3.52  l1.646-2.514l3.644-1.648l6.39,1.692l1.49-1.062l2.354,1.272l-1.188,3.434l0.762,2.504l-2.102,2.134l0.79,1.622l-1.736,3.144  l1.666,3.652l-1.736,3.102L761.251,71.377L761.251,71.377z" />
<path
   id="_x34_2_Tipaza"
   fill="#86AAE0"
   stroke="#FFFFFF"
   stroke-width="0.75"
   stroke-linecap="round"
   d="M484.689,48.213  l-2.196,4.934l2.84,5.216l2.938-2.196l0.576-2.222l7.786,1.612l5.918-1.938l5.456,1.63l9.354,0.02l2.074-2.928l3.136,0.604  l0.896-1.28l-0.886-1.604l2.12-0.28l2.954-3.294l4.222-1.198l-0.678-2.046l-0.27-2.894l-10.376,5.674l-5.454-0.078l-0.962-2.048  l-2.352-0.56l-13.48,4.064l-4.622-0.548L484.689,48.213L484.689,48.213z" />
<path
   id="_x34_3_Mila"
   fill="#86AAE0"
   stroke="#FFFFFF"
   stroke-width="0.75"
   stroke-linecap="round"
   d="M672.075,79.216  l-7.166-0.836l-0.98,0.766l2.4-2.586l-2.324-2.426l1.38-1.206l-0.572-4.17l-3.426-0.798l-0.098-3.736l1.954-1.042l-4.376-4.734  l0.194-2.342l-2.788-0.852l0.228-2.694l-2.488-1.906l0.25-4.096l-1.114-1.434l2.226-0.676l2.734,1.444L661.117,45l2.484-3.342  l9.712,1.624l3.722-2.464l0.866,1.276l5.484,0.962l1.934-0.348l-0.04,3.198l-6.596,1.53l0.57,4.042l-1.842,3.756l2.638-0.81  l2.252,1.758l-0.528,2.976l1.576,0.992l2.036-0.59l1.874,1.606l-0.216,2.708l-4.732,1.726l-0.324,5.582l-2.438,3.066l-1.564-0.232  l0.426,1.542l-1.43-1.02l-3.3,0.452L672.075,79.216L672.075,79.216z" />
<path
   id="_x34_4_Aïn_Defla"
   fill="#86AAE0"
   stroke="#FFFFFF"
   stroke-width="0.75"
   stroke-linecap="round"
   d="M523.346,59.481  l-5.986-4.212l-9.354-0.02l-5.456-1.63l-5.918,1.938l-7.786-1.612l-0.576,2.222l-2.938,2.196l-2.84-5.216l-4.458,3.28l-0.26,2.344  l2.992,3.244l-2.392,2.338l3.658,1.072l-2.66,1.77l0.008,2.038l1.36,1.406l1.6-0.358l-0.514,2.198l1.364,3.214l2.536,1.818  l-0.508,3.518l4.266,0.502l0.8,2.298l1.548-0.038l5.268-5.856l-0.012,2.008l5.374-1.418l0.88,1.874l2.456,0.11l1.68,2.218  l3.124,0.262l2.1-2.208l-0.674-1.752l3.97,0.148l0.634-5.552l1.722,0.468l3.684-2.222l0.126-3.686l-2.688-0.61l-0.17-2.738  l-1.418-0.398l1.25-3.82l2.692,0.086L523.346,59.481L523.346,59.481z" />
<path
   id="_x34_5_Naâma"
   style="fill:#86aae0;stroke:#ffffff;stroke-width:0.75;stroke-linecap:round"
   d="m 416.745,197.433 -5.84,26.2 1.682,4.9 -1.78,1.98 1.338,0.881 -1.179,3.159 -3.12,1.72 -0.561,3.68 1.662,0.94 -0.542,2.26 1.96,2.2 -0.799,3.06 0.861,4.781 -5.98,11.519 -3.261,4.801 -4.821,-1.04 -3.62,2.66 -13.58,-3.801 -11.66,6.2 -0.6,-3.119 -2.761,-0.081 1.082,-5.74 -2.862,-0.239 -0.32,-4.78 5.741,-5.18 -11.541,-9.301 -4.757,-2.36 -6.702,-11.36 2.522,-0.84 0.759,-4.8 -4.401,-4.18 -3.88,-6.84 0.38,-5.14 3.439,-7.62 -0.199,-3.84 -2.361,-4.04 -3.598,-1.02 0.418,-1.78 2.563,-1.86 -1.101,-5.04 2.381,-11.399 7.22,-5.261 9.978,0.06 2.459,-2.82 3.041,-0.96 2.182,3.26 4.259,-3.14 1.178,2.04 0.683,-0.84 5.918,1.8 8.12,-5.02 3.682,2.08 6.259,19.54 0.641,-2.26 1.698,0.08 4.182,-5.78 3.28,-1.419 2.74,0.399 0.339,4.94 3.599,-1.62 2.099,1.5 -0.399,5.3 1.5,0.56 1.462,3.58 1.519,0.22 -4.242,2.261 z" />
<path
   id="_x34_6_Aïn_Témouchent"
   fill="#86AAE0"
   stroke="#FFFFFF"
   stroke-width="0.75"
   stroke-linecap="round"
   d="  M370.453,122.265l-1.372,0.14l-0.524-1.82l-6.978-3.496l-0.662,0.66l-0.744-1.544l-2.162,0.91l-4.676-1.586l-1.836,2.672  l-2.166,0.528l-2.102-1.336l0.404-1.908l-1.694-1.246l5.338-3.532l3.254,0.282l4.236-2.486l4.05-11.214l1.788,0.07l4.12-3.244  l2.682,2.858l-0.444,1.434l2.016,0.014l-0.766,2.038l-1.786,0.502l0.348,3.182l0.024-1.242l1.788-0.09l-0.404-1.192l1.642,1.314  l3.14,0.042l10.132-3.248l1.552,5.842l-1.544,1.128l-0.054,2.202l-5.676,0.994l-0.136,1.456l-1.936,0.912l-1.626-1.096l-1.562,2.79  l-1.346-0.358l0.572,3.892l-2.76,0.922l-0.496,2.902L370.453,122.265L370.453,122.265z" />
<path
   id="_x34_7_Ghardaïa_1_"
   style="fill:#86aae0;stroke:#ffffff;stroke-width:0.75;stroke-linecap:round"
   d="m 628.744,236.533 -10.08,18.62 -13.519,14.62 -0.901,19.78 h -6.318 l -4.34,-2.68 -5.042,-4 h -5.458 l -5.16,-3.5 h -13.84 l -2.701,-2.32 -8.959,-0.6 -3,-1.08 h -7.34 l -2.5,-1.82 -10,-2.84 -9.16,-4 -9,-7.019 -0.022,-0.021 -1.558,-6.279 -1.14,-12.361 21.658,-1.9 10.742,-3.22 17.1,4.08 -0.662,-5.799 -7.318,-4.461 15.7,-0.72 1.881,-1.48 0.88,0.64 0.838,-1.5 0.599,1.021 1.823,-0.781 5.36,2.22 1.539,-0.84 26.159,1.8 z" />
<path
   id="_x34_8_Relizane"
   fill="#86AAE0"
   stroke="#FFFFFF"
   stroke-width="0.75"
   stroke-linecap="round"
   d="M448.245,105.257  l-4.094-0.636l-0.59-1.324l-3.442,0.17l-1.836-1.834l-3.78,0.082l-2.564-3.604l-1.716,1.222l-0.25-1.048l-3.432,0.986l-2.434-7.222  l-1.156-0.388l3.488-4.148l1.734-1.078l1.754,0.746l2.664-2.874l-0.454-1.82l1.18-1.984l-1.348,0.072l-0.626-1.534l1.692-2.036  l2.452,1.144l1.106-1.21l4.252-0.186l-0.718-1.742l1.268-1.398l-2.578-2.7l3.958-4.942l4.11,0.642l4.346-1.602l0.934,3.788  l1.074,0.042l-1.654,3.374l1.018-0.314l1.038,3.994l3.55-1.326l-0.694,0.488l1.186,0.082l1.082,2.358l3.126,1.97l5.676-1.626  l4.344,6.574l1.544,1.344l-2.244,2.67l-1.412-0.284l-0.664-1.786l-1.986,1.084l0.412,3.302l-1.302,2.15l-2.898,1.144l-1.136,1.972  l-4.116-0.414l-0.328,1.826l-1.622-0.22l-0.224,1.736l-2.428,0.194l-3.454,5.756L448.245,105.257L448.245,105.257z" />
<path
   id="_x34_9_El_M_x27_Ghair"
   style="fill:#86aae0;stroke:#ffffff;stroke-width:0.75;stroke-linecap:round"
   d="m 673.424,206.033 -17,0.32 -17.599,0.32 1.32,-3.44 -1.361,-3.18 -0.699,-9.26 -2.181,-4.18 1.72,-8 3.94,-9.38 -7.34,-6.52 1.421,-3.7 -2.401,-2.72 3.781,-2.64 -1.44,-1.26 2.199,-1.26 0.18,0.12 4.4,2.92 23.721,2.521 0.579,7.519 3.18,3.02 1.5,3.32 1.661,3.16 -1.701,7.52 -1.32,1.22 -0.099,2.8 2.279,5.2 0.08,5.1 -1.919,2.141 2.359,2.939 z" />
<path
   id="_x35_0_El_Meniaa"
   style="fill:#86aae0;stroke:#ffffff;stroke-width:0.75;stroke-linecap:round"
   d="m 604.244,289.553 -0.638,14.241 -6.341,16.299 -20.981,73.421 -3.16,2.18 -13.518,28.179 -16.461,7.261 -22.281,1.94 -20.537,7.62 2.239,-9.78 -8.541,-47.481 5.282,-26.56 1.358,-57.239 9.301,-10.301 -1.442,-17.22 5.162,-3.359 -2.26,-9.06 9,7.019 9.16,4 10,2.84 2.5,1.82 h 7.34 l 3,1.08 8.959,0.6 2.701,2.32 h 13.84 l 5.16,3.5 h 5.458 l 5.042,4 4.34,2.68 z" />
<path
   id="_x35_1_Ouled_Djellal"
   fill="#86AAE0"
   stroke="#FFFFFF"
   stroke-width="0.75"
   stroke-linecap="round"
   d="M638.784,200.053  l1.36,3.18l-1.32,3.44l-1.82,3.72l-7.84-7l-0.22-3.8l1.04-1.76l-8-2l-1.46-2.44l-3.92,0.64l-0.78-1.9l-6.52-1.24l-2.16-2.96  l-13.14-5.66l-0.9-1.38l0.8-1.04l2.68-0.26l2.74-2.94h2.4l-1.14-1.46l-4.7-0.78l-0.78-2.98l-3.78-0.54l-1.86-2.28l0.88-1.38  l3.98-1.04l1.56-2.02l-3.64-1.86l0.62-1.44l-2.44-2.54l-0.82-6.18l-1.06-0.6l4.38-3.66l1.76-3.66l9.62-0.08l3.66-2.28l1.32,0.88  l2.04-1.08l-2.6-2.18l2-0.34l1.88-3l8.78-2.64c0,0,0,0,0.02,0c3.58,0.18,7.46,0.32,7.46,0.32l1.5,3.94l1.88,1.62l0.3,2.08l2.5,1.86  l1.76,1.94v3l1.16,2.98l-0.18-0.12l-2.2,1.26l1.44,1.26l-3.78,2.64l2.4,2.72l-1.42,3.7l7.34,6.52l-3.94,9.38l-1.72,8l2.18,4.18  L638.784,200.053z" />
<path
   id="_x35_2_Bordj_Baji_Mokhtar"
   style="fill:#86aae0;stroke:#ffffff;stroke-width:0.75;stroke-linecap:round"
   d="m 524.025,890.994 -4.481,1.46 -3.38,-6.161 -4.92,-4.599 -3.12,-0.721 -3.76,3.921 -2.557,-2.301 -1.6,0.781 -2.48,-0.94 -2.041,1.12 -1.979,-3.06 -3.542,0.08 -6.401,-5.841 -1.798,-8.659 -12.702,-4.481 -3.16,-4.039 -6.239,0.539 -0.918,-2.36 1.64,-11.519 -1.14,-5.921 -55.481,-37.2 -0.78,-3.959 -182.839,-135.161 -41.78,-32.5 h -0.022 l -0.079,-0.06 26.34,-9.459 13.478,-0.82 254.581,71.14 -1.261,112.959 8.323,-1.339 8.837,0.94 0.241,1.12 2.802,13.38 12.198,12.38 4.981,10.12 3.36,11.699 -0.062,12.26 4.5,6.521 6.26,14.9 z" />
<path
   id="_x35_3_Béni_Abbès"
   style="fill:#86aae0;stroke:#ffffff;stroke-width:0.75;stroke-linecap:round"
   d="m 426.487,348.794 -16.862,18.939 -7.939,13.82 -20.379,14.34 -3.062,10.5 2.04,13.6 -1.219,5.44 -8.941,7.56 -2.698,2.301 -22.383,0.919 -26.478,7.24 -13.661,18.6 -13.079,9.861 -3.462,7.519 -12.298,15.06 -6.72,21.261 2.319,2.5 -26.478,-3.36 -6,-4.84 -11.683,-14.2 -0.157,-15.28 -13.563,-25.361 -11.558,-42.359 -11.622,-6.34 -16.82,-0.701 -9.958,-8.36 8.418,-10.78 0.062,-2.74 2.02,-3 16.198,-11.519 14.963,-6.481 13.297,-11.94 7.841,-2.5 13.461,-1.56 4.901,-1.82 0.558,4.361 1.619,1.739 1.263,6.261 0.737,1.739 h 5.381 v -2.12 h 4.762 l 2.12,-1.619 h 6.88 l 1.737,-1.521 2.763,-2.12 3,1.38 h 6.12 l 10,-9.38 19.38,0.26 2,-2.26 h 21.62 l 2.759,-1.88 5.858,-0.74 2.763,3.261 8.62,-0.881 1.38,-1.5 6.737,-0.26 3,-2.12 11,-0.38 1.883,-1.62 h 5.117 l 5.883,5.5 h 4.117 l 3,4.261 h 17 l 3.383,1.859 z" />
<path
   id="_x35_4_Timimoun"
   style="fill:#86aae0;stroke:#ffffff;stroke-width:0.75;stroke-linecap:round"
   d="m 502.566,430.914 -2.239,9.78 -1.563,21.179 -1.177,3.74 -2.323,-5.3 -5.979,-3.26 -13.358,1.32 -5,-2 -14,0.34 -8.663,3.6 -5.337,2.06 -3.34,1.34 -5.66,1.34 h -7.062 l -6.601,-2 -5,-2.74 h -6.677 l -6.66,-2.6 -8,-2.34 -23.802,-22.38 8.941,-7.56 1.219,-5.44 -2.04,-13.6 3.062,-10.5 20.379,-14.34 7.939,-13.82 16.862,-18.939 0.378,-0.44 31.64,-22.361 42.16,-26.359 -1.358,57.239 -5.282,26.56 z" />
<path
   id="_x35_5_Touggourt"
   fill="#86AAE0"
   stroke="#FFFFFF"
   stroke-width="0.75"
   stroke-linecap="round"
   d="M726.244,276.453  l-6.78-0.8l-3.3-1.62l-5.06-2.26l-5.52-2.22l-14.5-5.18l-4.08-0.42l-12.84-17.08l-0.4-11.82l-5.5-1.76l-1.58-1.74l-1.92-4.08  c0,0-5.08-4.34-5.68-4.18c-0.58,0.18,0-11.08,0-11.08l-2.66-3.62v-2.24l17-0.32l-0.74-5.4l-2.36-2.94l1.92-2.14l-0.08-5.1l-2.28-5.2  l0.1-2.8l1.32-1.22l1.1,2.1l5.46-4.28l1.52-0.22l1.04,2.08l0.64-1.6l2.42,15.32l16.2,45.94l15.56,23.16L726.244,276.453z" />
<path
   id="_x35_6_Djanet"
   style="fill:#86aae0;stroke:#ffffff;stroke-width:0.75;stroke-linecap:round"
   d="m 969.745,693.973 -78.56,58.221 -1.44,-41.12 -14.961,-8.461 -4.419,0.101 -3.32,-2.041 -27.8,1.641 -25.781,19.24 -34.359,8.32 -12.48,-8.781 3.94,-4.48 -11.161,-24.719 -2.079,-21.88 0.479,-7.56 -11.18,-16.06 -8.96,-0.281 -5.659,-4.359 -7.381,-12.48 -3.26,-8.34 -10.12,-12.28 4.92,3.3 7,2.26 7.26,2 13.5,7 h 17.761 l 1.74,-1.26 12.5,-0.24 2.24,-9 6.26,-3.76 3.74,-1.481 h 3.52 l 2.24,-4.259 8.76,-6.26 h 7.24 l 6.539,8.26 3.461,8.5 6,6.759 9.5,0.481 7,-1.74 7.5,0.259 5.24,-2.259 16.98,0.959 0.759,9.92 9.521,15.401 6.94,5.34 8.82,-0.481 3.08,-2.26 4.26,-0.279 3.06,2.979 2.58,-3.239 3.42,0.479 2.58,1.041 5.08,5.06 4.02,1.32 14.16,8.74 8.22,-3.961 z" />
<path
   id="_x35_7_In_Salah"
   fill="#86AAE0"
   stroke="#FFFFFF"
   stroke-width="0.75"
   stroke-linecap="round"
   d="M670.304,511.594  l-13.88-0.38l-2.5,4l-4.24,4.88v4.24l2.24,5.62l-6.24,8.76l-3.14,2.5v4.88l-9.86,10l-4.14,1l-2.38,4.38c0,0-1.86,0.36-2.62,0  c-0.74-0.38-3.12-2.38-3.12-2.38l-13,0.74l-16,17.26l-5.12,0.74l-5.5-5.24l-2.26,1.74l3.38,5.38l2,2l1.5,8.38l-3.12,2.62l-0.38,4.5  l6.12,10.38l-11.5,11.24l-3.38-1.5l-2.12,1.5h-6.24l-1.26-2.62v-8.74l-5.24,0.12l-6.38,7.5l-20.5,0.74l-5.62-5.88l-8.12-1.24  l-4.26-3.62l-6.74,1.24l-3.88-3.12l-3.26,3.38l-1.5,7.24l-0.88,4.26l-3.36,16.24l-2,7l-19.16,15.36l-0.3-43.88l-17.14-24.26  l-5.42-12.08l14.96-15.36l2.38-4.9l5.26-1.62l1.78,1.62l3.48-0.4l0.28,1.64l4.7-3.36l0.94-17.76l5.12-12.88l-3.7-5.56l-0.1-12.42  l3.72-6.36l1.62-20.16l6.34-10.06l0.94-3.04l0.08-0.24l1.18-3.74l1.56-21.18l20.54-7.62l22.28-1.94l35.06,28.36l-0.3,0.82  l86.24-66.52l2.6,67.62l-3.54,16.72L670.304,511.594z" />
<path
   id="_x35_8_In_Guezzam"
   fill="#86AAE0"
   stroke="#FFFFFF"
   stroke-width="0.75"
   stroke-linecap="round"
   d="M776.065,836.014  l-13.54,9.86l-76.12,75.46l-121.02,27.54l-10.22-7.82l-1.02-2.32l4.18-5.72l0.74-3.42l2.94-3.12l-1.84-4.3l0.72-1.96l-1.94-3.12  l1.08-3.48l-1.08-1.82l0.82-7.42l-13.08-6.32l-12.62-2.66l-6.16,0.04l-5.4-2.86l-2.96-0.12l4.48-1.46l-0.98-5.78l-6.26-14.9  l-4.5-6.52l0.06-12.26l-3.36-11.7l-4.98-10.12l-12.2-12.38l-2.8-13.38l19.98-0.3l1.7-1.94l31.48,0.24l2.76-4.48l4,1.24l3,7.24  l3.5,6.76l2.74,9l6,0.5l5.26,7.26l9.5,0.48l3.5,3.26l7.5,2.26l4,5v4.48l2.5,3v5.52l-1.26,3l-1.24,9.74l2.76,3h8.74l10.26-10.26  l8.74-1.74l2.26-9.26l1.48-4l-1.48-4.48l1.74-7.26l4.26-2.5l4.24,1.5l8.24,0.5l10.52,6.76l19.24-0.26l5.24,5.74h25v-8.74l3-6l3-7.26  l2.26-7.48l2.5-5h12.24l18.26,13.24l4.5,0.76l2.24-2h5.26c0,0,10.5,8.48,11.74,10C770.725,832.134,773.325,834.054,776.065,836.014z  " />
</g>
</svg>
